{
	"asset":{
		"generator":"Khronos glTF Blender I/O v4.1.62",
		"version":"2.0"
	},
	"scene":0,
	"scenes":[
		{
			"name":"Scene",
			"nodes":[
				38
			]
		}
	],
	"nodes":[
		{
			"name":"index_right3",
			"rotation":[
				-6.645917892456055e-06,
				4.064291715621948e-06,
				7.897614864305069e-07,
				1
			],
			"scale":[
				1.0000001192092896,
				1,
				1
			],
			"translation":[
				-4.172325134277344e-07,
				0.5309755802154541,
				-1.6689300537109375e-06
			]
		},
		{
			"children":[
				0
			],
			"name":"index_right2",
			"rotation":[
				-4.742294549942017e-06,
				-3.390014171600342e-06,
				-1.547485589981079e-05,
				1
			],
			"translation":[
				5.364418029785156e-07,
				0.5309724807739258,
				0
			]
		},
		{
			"children":[
				1
			],
			"name":"index_right1",
			"rotation":[
				3.5762791412707884e-06,
				9.611250106900115e-07,
				7.841736987757031e-06,
				1
			],
			"scale":[
				0.9999998807907104,
				0.9999998807907104,
				0.9999998807907104
			],
			"translation":[
				1.341104507446289e-06,
				1.194682240486145,
				4.76837158203125e-07
			]
		},
		{
			"children":[
				2
			],
			"name":"index_right0",
			"rotation":[
				-0.10251930356025696,
				0.1334739625453949,
				0.19633853435516357,
				0.9659842848777771
			],
			"scale":[
				1.0000001192092896,
				1,
				1.0000001192092896
			],
			"translation":[
				0.5494229793548584,
				1.6809561252593994,
				0.19677257537841797
			]
		},
		{
			"name":"thumb_right3",
			"rotation":[
				3.129243850708008e-07,
				1.166015863418579e-06,
				2.2053720840631286e-06,
				1
			],
			"scale":[
				0.9999999403953552,
				0.9999999403953552,
				1
			],
			"translation":[
				-2.5033950805664062e-06,
				1.6119556427001953,
				1.1920928955078125e-06
			]
		},
		{
			"children":[
				4
			],
			"name":"thumb_right2",
			"rotation":[
				-0.009912887588143349,
				-0.028374023735523224,
				-0.059889525175094604,
				0.9977524280548096
			],
			"scale":[
				1,
				1.0000001192092896,
				0.9999998807907104
			],
			"translation":[
				2.384185791015625e-07,
				1.9424982070922852,
				2.384185791015625e-07
			]
		},
		{
			"children":[
				5
			],
			"name":"thumb_right1",
			"rotation":[
				1.123175024986267e-06,
				9.313225746154785e-08,
				1.7043203115463257e-06,
				1
			],
			"scale":[
				1,
				1,
				1.0000001192092896
			],
			"translation":[
				-5.662441253662109e-06,
				1.6187477111816406,
				-6.079673767089844e-06
			]
		},
		{
			"children":[
				6
			],
			"name":"thumb_right0",
			"rotation":[
				0.02982407994568348,
				0.11829839646816254,
				0.23691672086715698,
				0.9638394713401794
			],
			"scale":[
				1,
				0.9999999403953552,
				1.0000001192092896
			],
			"translation":[
				-0.5866105556488037,
				-0.5045516490936279,
				0.09222203493118286
			]
		},
		{
			"children":[
				3,
				7
			],
			"name":"arm_right_hand",
			"rotation":[
				0.1577126681804657,
				-0.24393628537654877,
				-0.3742813169956207,
				0.8806448578834534
			],
			"scale":[
				1,
				1.0000001192092896,
				1
			],
			"translation":[
				-1.1920928955078125e-07,
				8.870033264160156,
				1.0728836059570312e-06
			]
		},
		{
			"children":[
				8
			],
			"name":"arm_right_bot",
			"rotation":[
				0.11196466535329819,
				-0.1290101855993271,
				-0.11052388697862625,
				0.9790836572647095
			],
			"scale":[
				0.9999999403953552,
				0.9999999403953552,
				1
			],
			"translation":[
				9.387731552124023e-07,
				11.2020902633667,
				-1.7881393432617188e-07
			]
		},
		{
			"children":[
				9
			],
			"name":"arm_right_top",
			"rotation":[
				0.08437090367078781,
				-0.08540361374616623,
				0.11577167361974716,
				0.985994279384613
			],
			"scale":[
				1,
				1.0000001192092896,
				0.9999998807907104
			],
			"translation":[
				2.980232238769531e-07,
				2.2628352642059326,
				-5.960464477539063e-08
			]
		},
		{
			"children":[
				10
			],
			"name":"shoulder_right",
			"rotation":[
				-0.0804150179028511,
				-4.2020435131462364e-08,
				0.6524409055709839,
				0.7535611391067505
			],
			"translation":[
				-5.849970817565918,
				-0.19128409028053284,
				0.099571593105793
			]
		},
		{
			"name":"head",
			"rotation":[
				3.5873121362328675e-08,
				4.963083675318166e-22,
				2.242070973323962e-09,
				1
			],
			"scale":[
				1,
				0.9999999403953552,
				1
			],
			"translation":[
				-5.515032874825465e-14,
				9.969244003295898,
				-4.593596258928301e-08
			]
		},
		{
			"children":[
				12
			],
			"name":"neck",
			"rotation":[
				2.5294013994425768e-08,
				-1.0720260738687239e-21,
				-6.3235048308740716e-09,
				1
			],
			"translation":[
				2.818981670316134e-08,
				1.9999980926513672,
				-2.1266309602196998e-07
			]
		},
		{
			"name":"index_left3",
			"rotation":[
				-6.10947654422489e-06,
				-2.6747584342956543e-06,
				-7.82310962677002e-08,
				1
			],
			"scale":[
				1,
				0.9999999403953552,
				1
			],
			"translation":[
				-1.1920928955078125e-06,
				1.0843806266784668,
				1.9073486328125e-06
			]
		},
		{
			"children":[
				14
			],
			"name":"index_left2",
			"rotation":[
				0.008280622772872448,
				0.05607068911194801,
				0.07326798141002655,
				0.9957003593444824
			],
			"scale":[
				0.9999998807907104,
				1,
				1.0000001192092896
			],
			"translation":[
				-9.5367431640625e-07,
				1.0500389337539673,
				8.344650268554688e-07
			]
		},
		{
			"children":[
				15
			],
			"name":"index_left1",
			"rotation":[
				0.04392240568995476,
				0.14910849928855896,
				0.1775389462709427,
				0.9717599749565125
			],
			"translation":[
				3.874301910400391e-06,
				2.4528329372406006,
				-7.510185241699219e-06
			]
		},
		{
			"children":[
				16
			],
			"name":"index_left0",
			"rotation":[
				0.22605378925800323,
				0.33320239186286926,
				0.20774118602275848,
				0.8914703726768494
			],
			"scale":[
				1,
				0.9999998807907104,
				0.9999998807907104
			],
			"translation":[
				0.29993605613708496,
				1.633156180381775,
				-0.7390561103820801
			]
		},
		{
			"name":"thumb_left3",
			"rotation":[
				-1.3373792171478271e-06,
				6.761401891708374e-07,
				7.133000053727301e-06,
				1
			],
			"scale":[
				1,
				0.9999999403953552,
				1
			],
			"translation":[
				-4.76837158203125e-07,
				0.6602762937545776,
				7.152557373046875e-07
			]
		},
		{
			"children":[
				18
			],
			"name":"thumb_left2",
			"rotation":[
				1.7657878288446227e-06,
				8.251519147961517e-07,
				-1.558102894705371e-06,
				1
			],
			"scale":[
				0.9999999403953552,
				0.9999999403953552,
				0.9999998807907104
			],
			"translation":[
				-2.384185791015625e-07,
				0.792344331741333,
				9.5367431640625e-07
			]
		},
		{
			"children":[
				19
			],
			"name":"thumb_left1",
			"rotation":[
				-1.952052116394043e-06,
				-1.3485550880432129e-06,
				3.343448042869568e-07,
				1
			],
			"scale":[
				0.9999999403953552,
				1,
				1
			],
			"translation":[
				-1.3709068298339844e-06,
				0.6602933406829834,
				9.5367431640625e-07
			]
		},
		{
			"children":[
				20
			],
			"name":"thumb_left0",
			"rotation":[
				0.09176847338676453,
				0.14184772968292236,
				0.3696075677871704,
				0.9137002229690552
			],
			"scale":[
				1,
				1,
				0.9999999403953552
			],
			"translation":[
				-0.48044610023498535,
				0.9993894100189209,
				1.5994620323181152
			]
		},
		{
			"children":[
				17,
				21
			],
			"name":"arm_left_hand",
			"rotation":[
				-0.10930314660072327,
				-0.16440173983573914,
				-0.24302740395069122,
				0.949717104434967
			],
			"scale":[
				1,
				1,
				0.9999999403953552
			],
			"translation":[
				-2.294778823852539e-06,
				8.870026588439941,
				-9.5367431640625e-07
			]
		},
		{
			"children":[
				22
			],
			"name":"arm_left_bot",
			"rotation":[
				0.111964650452137,
				0.12901028990745544,
				0.1105237752199173,
				0.9790836572647095
			],
			"scale":[
				1,
				1.0000001192092896,
				1
			],
			"translation":[
				1.087784767150879e-06,
				11.202093124389648,
				-1.7881393432617188e-07
			]
		},
		{
			"children":[
				23
			],
			"name":"arm_left_top",
			"rotation":[
				0.08437084406614304,
				0.08540354669094086,
				-0.11577170342206955,
				0.985994279384613
			],
			"scale":[
				0.9999999403953552,
				1.0000001192092896,
				0.9999999403953552
			],
			"translation":[
				2.2351741790771484e-06,
				2.262835741043091,
				5.960464477539063e-08
			]
		},
		{
			"children":[
				24
			],
			"name":"shoulder_left",
			"rotation":[
				-0.08041495829820633,
				-1.235895030760048e-08,
				-0.6524408459663391,
				0.7535611987113953
			],
			"scale":[
				1,
				1,
				0.9999999403953552
			],
			"translation":[
				6.281187057495117,
				-0.19128423929214478,
				0.099571593105793
			]
		},
		{
			"children":[
				11,
				13,
				25
			],
			"name":"body_top2",
			"rotation":[
				-1.2434510310299629e-08,
				-1.6263265521343061e-16,
				9.538380751905606e-09,
				1
			],
			"translation":[
				-3.475193022239864e-09,
				4.635066032409668,
				1.4319851970867603e-08
			]
		},
		{
			"children":[
				26
			],
			"name":"body_top1",
			"rotation":[
				-1.2859504572304559e-08,
				-5.194694246833014e-22,
				-3.2148763651207446e-09,
				1
			],
			"translation":[
				0,
				5.562076568603516,
				-3.539440740496502e-08
			]
		},
		{
			"children":[
				27
			],
			"name":"body_top0",
			"scale":[
				1,
				0.9999999403953552,
				1
			],
			"translation":[
				0,
				4.635075569152832,
				8.852236987877404e-08
			]
		},
		{
			"name":"leg_right_foot",
			"rotation":[
				4.670685882501857e-08,
				-1,
				1.9461197098280536e-08,
				7.549789415861596e-08
			],
			"translation":[
				-9.354188534871355e-10,
				15.313718795776367,
				2.8239128369023092e-08
			]
		},
		{
			"children":[
				29
			],
			"name":"leg_right_bot",
			"rotation":[
				-3.892239419656107e-09,
				-1.2119119769209955e-16,
				-3.11379082518215e-08,
				1
			],
			"translation":[
				0,
				18.71677017211914,
				-4.521524488154682e-08
			]
		},
		{
			"children":[
				30
			],
			"name":"leg_right_top",
			"rotation":[
				0,
				0,
				-1,
				0
			],
			"translation":[
				-5.778936386108398,
				-0.8605003952980042,
				0.721501350402832
			]
		},
		{
			"name":"leg_left_foot",
			"rotation":[
				-1.556895412591075e-08,
				0,
				0,
				1
			],
			"translation":[
				0,
				15.313718795776367,
				2.8239128369023092e-08
			]
		},
		{
			"children":[
				32
			],
			"name":"leg_left_bot",
			"rotation":[
				-3.892239419656107e-09,
				0,
				0,
				1
			],
			"translation":[
				0,
				18.71677017211914,
				-4.521524488154682e-08
			]
		},
		{
			"children":[
				33
			],
			"name":"leg_left_top",
			"rotation":[
				0,
				0,
				-1,
				0
			],
			"translation":[
				6.210152626037598,
				-0.8605003952980042,
				0.721501350402832
			]
		},
		{
			"children":[
				28,
				31,
				34
			],
			"name":"body",
			"rotation":[
				-5.006824267184129e-06,
				0,
				0,
				1
			],
			"translation":[
				0,
				40.78543472290039,
				-0.0004078670754097402
			]
		},
		{
			"children":[
				35
			],
			"name":"root",
			"rotation":[
				-0.7071031928062439,
				0,
				0,
				0.7071103453636169
			],
			"translation":[
				-0.215608149766922,
				-1.9202817678451538,
				36.536903381347656
			]
		},
		{
			"mesh":0,
			"name":"a7d429d3-3af4-498d-ac74-ceb151ed840d_1aacac91d271d968884d6ff09e",
			"skin":0
		},
		{
			"children":[
				37,
				36
			],
			"name":"rig",
			"rotation":[
				0.7071068286895752,
				0,
				0,
				0.7071068286895752
			]
		}
	],
	"animations":[
		{
			"channels":[
				{
					"sampler":0,
					"target":{
						"node":36,
						"path":"translation"
					}
				},
				{
					"sampler":1,
					"target":{
						"node":36,
						"path":"rotation"
					}
				},
				{
					"sampler":2,
					"target":{
						"node":36,
						"path":"scale"
					}
				},
				{
					"sampler":3,
					"target":{
						"node":35,
						"path":"translation"
					}
				},
				{
					"sampler":4,
					"target":{
						"node":35,
						"path":"rotation"
					}
				},
				{
					"sampler":5,
					"target":{
						"node":35,
						"path":"scale"
					}
				},
				{
					"sampler":6,
					"target":{
						"node":28,
						"path":"translation"
					}
				},
				{
					"sampler":7,
					"target":{
						"node":28,
						"path":"rotation"
					}
				},
				{
					"sampler":8,
					"target":{
						"node":28,
						"path":"scale"
					}
				},
				{
					"sampler":9,
					"target":{
						"node":27,
						"path":"translation"
					}
				},
				{
					"sampler":10,
					"target":{
						"node":27,
						"path":"rotation"
					}
				},
				{
					"sampler":11,
					"target":{
						"node":27,
						"path":"scale"
					}
				},
				{
					"sampler":12,
					"target":{
						"node":26,
						"path":"translation"
					}
				},
				{
					"sampler":13,
					"target":{
						"node":26,
						"path":"rotation"
					}
				},
				{
					"sampler":14,
					"target":{
						"node":26,
						"path":"scale"
					}
				},
				{
					"sampler":15,
					"target":{
						"node":11,
						"path":"translation"
					}
				},
				{
					"sampler":16,
					"target":{
						"node":11,
						"path":"rotation"
					}
				},
				{
					"sampler":17,
					"target":{
						"node":11,
						"path":"scale"
					}
				},
				{
					"sampler":18,
					"target":{
						"node":10,
						"path":"translation"
					}
				},
				{
					"sampler":19,
					"target":{
						"node":10,
						"path":"rotation"
					}
				},
				{
					"sampler":20,
					"target":{
						"node":10,
						"path":"scale"
					}
				},
				{
					"sampler":21,
					"target":{
						"node":9,
						"path":"translation"
					}
				},
				{
					"sampler":22,
					"target":{
						"node":9,
						"path":"rotation"
					}
				},
				{
					"sampler":23,
					"target":{
						"node":9,
						"path":"scale"
					}
				},
				{
					"sampler":24,
					"target":{
						"node":8,
						"path":"translation"
					}
				},
				{
					"sampler":25,
					"target":{
						"node":8,
						"path":"rotation"
					}
				},
				{
					"sampler":26,
					"target":{
						"node":8,
						"path":"scale"
					}
				},
				{
					"sampler":27,
					"target":{
						"node":3,
						"path":"translation"
					}
				},
				{
					"sampler":28,
					"target":{
						"node":3,
						"path":"rotation"
					}
				},
				{
					"sampler":29,
					"target":{
						"node":3,
						"path":"scale"
					}
				},
				{
					"sampler":30,
					"target":{
						"node":2,
						"path":"translation"
					}
				},
				{
					"sampler":31,
					"target":{
						"node":2,
						"path":"rotation"
					}
				},
				{
					"sampler":32,
					"target":{
						"node":2,
						"path":"scale"
					}
				},
				{
					"sampler":33,
					"target":{
						"node":1,
						"path":"translation"
					}
				},
				{
					"sampler":34,
					"target":{
						"node":1,
						"path":"rotation"
					}
				},
				{
					"sampler":35,
					"target":{
						"node":1,
						"path":"scale"
					}
				},
				{
					"sampler":36,
					"target":{
						"node":0,
						"path":"translation"
					}
				},
				{
					"sampler":37,
					"target":{
						"node":0,
						"path":"rotation"
					}
				},
				{
					"sampler":38,
					"target":{
						"node":0,
						"path":"scale"
					}
				},
				{
					"sampler":39,
					"target":{
						"node":7,
						"path":"translation"
					}
				},
				{
					"sampler":40,
					"target":{
						"node":7,
						"path":"rotation"
					}
				},
				{
					"sampler":41,
					"target":{
						"node":7,
						"path":"scale"
					}
				},
				{
					"sampler":42,
					"target":{
						"node":6,
						"path":"translation"
					}
				},
				{
					"sampler":43,
					"target":{
						"node":6,
						"path":"rotation"
					}
				},
				{
					"sampler":44,
					"target":{
						"node":6,
						"path":"scale"
					}
				},
				{
					"sampler":45,
					"target":{
						"node":5,
						"path":"translation"
					}
				},
				{
					"sampler":46,
					"target":{
						"node":5,
						"path":"rotation"
					}
				},
				{
					"sampler":47,
					"target":{
						"node":5,
						"path":"scale"
					}
				},
				{
					"sampler":48,
					"target":{
						"node":4,
						"path":"translation"
					}
				},
				{
					"sampler":49,
					"target":{
						"node":4,
						"path":"rotation"
					}
				},
				{
					"sampler":50,
					"target":{
						"node":4,
						"path":"scale"
					}
				},
				{
					"sampler":51,
					"target":{
						"node":13,
						"path":"translation"
					}
				},
				{
					"sampler":52,
					"target":{
						"node":13,
						"path":"rotation"
					}
				},
				{
					"sampler":53,
					"target":{
						"node":13,
						"path":"scale"
					}
				},
				{
					"sampler":54,
					"target":{
						"node":12,
						"path":"translation"
					}
				},
				{
					"sampler":55,
					"target":{
						"node":12,
						"path":"rotation"
					}
				},
				{
					"sampler":56,
					"target":{
						"node":12,
						"path":"scale"
					}
				},
				{
					"sampler":57,
					"target":{
						"node":25,
						"path":"translation"
					}
				},
				{
					"sampler":58,
					"target":{
						"node":25,
						"path":"rotation"
					}
				},
				{
					"sampler":59,
					"target":{
						"node":25,
						"path":"scale"
					}
				},
				{
					"sampler":60,
					"target":{
						"node":24,
						"path":"translation"
					}
				},
				{
					"sampler":61,
					"target":{
						"node":24,
						"path":"rotation"
					}
				},
				{
					"sampler":62,
					"target":{
						"node":24,
						"path":"scale"
					}
				},
				{
					"sampler":63,
					"target":{
						"node":23,
						"path":"translation"
					}
				},
				{
					"sampler":64,
					"target":{
						"node":23,
						"path":"rotation"
					}
				},
				{
					"sampler":65,
					"target":{
						"node":23,
						"path":"scale"
					}
				},
				{
					"sampler":66,
					"target":{
						"node":22,
						"path":"translation"
					}
				},
				{
					"sampler":67,
					"target":{
						"node":22,
						"path":"rotation"
					}
				},
				{
					"sampler":68,
					"target":{
						"node":22,
						"path":"scale"
					}
				},
				{
					"sampler":69,
					"target":{
						"node":17,
						"path":"translation"
					}
				},
				{
					"sampler":70,
					"target":{
						"node":17,
						"path":"rotation"
					}
				},
				{
					"sampler":71,
					"target":{
						"node":17,
						"path":"scale"
					}
				},
				{
					"sampler":72,
					"target":{
						"node":16,
						"path":"translation"
					}
				},
				{
					"sampler":73,
					"target":{
						"node":16,
						"path":"rotation"
					}
				},
				{
					"sampler":74,
					"target":{
						"node":16,
						"path":"scale"
					}
				},
				{
					"sampler":75,
					"target":{
						"node":15,
						"path":"translation"
					}
				},
				{
					"sampler":76,
					"target":{
						"node":15,
						"path":"rotation"
					}
				},
				{
					"sampler":77,
					"target":{
						"node":15,
						"path":"scale"
					}
				},
				{
					"sampler":78,
					"target":{
						"node":14,
						"path":"translation"
					}
				},
				{
					"sampler":79,
					"target":{
						"node":14,
						"path":"rotation"
					}
				},
				{
					"sampler":80,
					"target":{
						"node":14,
						"path":"scale"
					}
				},
				{
					"sampler":81,
					"target":{
						"node":21,
						"path":"translation"
					}
				},
				{
					"sampler":82,
					"target":{
						"node":21,
						"path":"rotation"
					}
				},
				{
					"sampler":83,
					"target":{
						"node":21,
						"path":"scale"
					}
				},
				{
					"sampler":84,
					"target":{
						"node":20,
						"path":"translation"
					}
				},
				{
					"sampler":85,
					"target":{
						"node":20,
						"path":"rotation"
					}
				},
				{
					"sampler":86,
					"target":{
						"node":20,
						"path":"scale"
					}
				},
				{
					"sampler":87,
					"target":{
						"node":19,
						"path":"translation"
					}
				},
				{
					"sampler":88,
					"target":{
						"node":19,
						"path":"rotation"
					}
				},
				{
					"sampler":89,
					"target":{
						"node":19,
						"path":"scale"
					}
				},
				{
					"sampler":90,
					"target":{
						"node":18,
						"path":"translation"
					}
				},
				{
					"sampler":91,
					"target":{
						"node":18,
						"path":"rotation"
					}
				},
				{
					"sampler":92,
					"target":{
						"node":18,
						"path":"scale"
					}
				},
				{
					"sampler":93,
					"target":{
						"node":31,
						"path":"translation"
					}
				},
				{
					"sampler":94,
					"target":{
						"node":31,
						"path":"rotation"
					}
				},
				{
					"sampler":95,
					"target":{
						"node":31,
						"path":"scale"
					}
				},
				{
					"sampler":96,
					"target":{
						"node":30,
						"path":"translation"
					}
				},
				{
					"sampler":97,
					"target":{
						"node":30,
						"path":"rotation"
					}
				},
				{
					"sampler":98,
					"target":{
						"node":30,
						"path":"scale"
					}
				},
				{
					"sampler":99,
					"target":{
						"node":29,
						"path":"translation"
					}
				},
				{
					"sampler":100,
					"target":{
						"node":29,
						"path":"rotation"
					}
				},
				{
					"sampler":101,
					"target":{
						"node":29,
						"path":"scale"
					}
				},
				{
					"sampler":102,
					"target":{
						"node":34,
						"path":"translation"
					}
				},
				{
					"sampler":103,
					"target":{
						"node":34,
						"path":"rotation"
					}
				},
				{
					"sampler":104,
					"target":{
						"node":34,
						"path":"scale"
					}
				},
				{
					"sampler":105,
					"target":{
						"node":33,
						"path":"translation"
					}
				},
				{
					"sampler":106,
					"target":{
						"node":33,
						"path":"rotation"
					}
				},
				{
					"sampler":107,
					"target":{
						"node":33,
						"path":"scale"
					}
				},
				{
					"sampler":108,
					"target":{
						"node":32,
						"path":"translation"
					}
				},
				{
					"sampler":109,
					"target":{
						"node":32,
						"path":"rotation"
					}
				},
				{
					"sampler":110,
					"target":{
						"node":32,
						"path":"scale"
					}
				},
				{
					"sampler":111,
					"target":{
						"node":38,
						"path":"translation"
					}
				},
				{
					"sampler":112,
					"target":{
						"node":38,
						"path":"rotation"
					}
				},
				{
					"sampler":113,
					"target":{
						"node":38,
						"path":"scale"
					}
				}
			],
			"name":"rig|rig|jump_end",
			"samplers":[
				{
					"input":7,
					"interpolation":"STEP",
					"output":8
				},
				{
					"input":7,
					"interpolation":"STEP",
					"output":9
				},
				{
					"input":7,
					"interpolation":"STEP",
					"output":10
				},
				{
					"input":11,
					"interpolation":"LINEAR",
					"output":12
				},
				{
					"input":11,
					"interpolation":"LINEAR",
					"output":13
				},
				{
					"input":7,
					"interpolation":"LINEAR",
					"output":14
				},
				{
					"input":11,
					"interpolation":"LINEAR",
					"output":15
				},
				{
					"input":11,
					"interpolation":"LINEAR",
					"output":16
				},
				{
					"input":7,
					"interpolation":"LINEAR",
					"output":17
				},
				{
					"input":7,
					"interpolation":"LINEAR",
					"output":18
				},
				{
					"input":11,
					"interpolation":"LINEAR",
					"output":19
				},
				{
					"input":7,
					"interpolation":"LINEAR",
					"output":20
				},
				{
					"input":7,
					"interpolation":"LINEAR",
					"output":21
				},
				{
					"input":11,
					"interpolation":"LINEAR",
					"output":22
				},
				{
					"input":7,
					"interpolation":"LINEAR",
					"output":23
				},
				{
					"input":11,
					"interpolation":"LINEAR",
					"output":24
				},
				{
					"input":11,
					"interpolation":"LINEAR",
					"output":25
				},
				{
					"input":7,
					"interpolation":"LINEAR",
					"output":26
				},
				{
					"input":7,
					"interpolation":"LINEAR",
					"output":27
				},
				{
					"input":11,
					"interpolation":"LINEAR",
					"output":28
				},
				{
					"input":7,
					"interpolation":"LINEAR",
					"output":29
				},
				{
					"input":7,
					"interpolation":"LINEAR",
					"output":30
				},
				{
					"input":11,
					"interpolation":"LINEAR",
					"output":31
				},
				{
					"input":7,
					"interpolation":"LINEAR",
					"output":32
				},
				{
					"input":7,
					"interpolation":"LINEAR",
					"output":33
				},
				{
					"input":11,
					"interpolation":"LINEAR",
					"output":34
				},
				{
					"input":7,
					"interpolation":"LINEAR",
					"output":35
				},
				{
					"input":7,
					"interpolation":"LINEAR",
					"output":36
				},
				{
					"input":11,
					"interpolation":"LINEAR",
					"output":37
				},
				{
					"input":7,
					"interpolation":"LINEAR",
					"output":38
				},
				{
					"input":7,
					"interpolation":"LINEAR",
					"output":39
				},
				{
					"input":11,
					"interpolation":"LINEAR",
					"output":40
				},
				{
					"input":7,
					"interpolation":"LINEAR",
					"output":41
				},
				{
					"input":7,
					"interpolation":"LINEAR",
					"output":42
				},
				{
					"input":11,
					"interpolation":"LINEAR",
					"output":43
				},
				{
					"input":7,
					"interpolation":"STEP",
					"output":44
				},
				{
					"input":7,
					"interpolation":"LINEAR",
					"output":45
				},
				{
					"input":11,
					"interpolation":"LINEAR",
					"output":46
				},
				{
					"input":7,
					"interpolation":"LINEAR",
					"output":47
				},
				{
					"input":7,
					"interpolation":"LINEAR",
					"output":48
				},
				{
					"input":11,
					"interpolation":"LINEAR",
					"output":49
				},
				{
					"input":7,
					"interpolation":"LINEAR",
					"output":50
				},
				{
					"input":7,
					"interpolation":"LINEAR",
					"output":51
				},
				{
					"input":11,
					"interpolation":"LINEAR",
					"output":52
				},
				{
					"input":7,
					"interpolation":"STEP",
					"output":53
				},
				{
					"input":7,
					"interpolation":"LINEAR",
					"output":54
				},
				{
					"input":11,
					"interpolation":"LINEAR",
					"output":55
				},
				{
					"input":7,
					"interpolation":"LINEAR",
					"output":56
				},
				{
					"input":7,
					"interpolation":"LINEAR",
					"output":57
				},
				{
					"input":11,
					"interpolation":"LINEAR",
					"output":58
				},
				{
					"input":7,
					"interpolation":"LINEAR",
					"output":59
				},
				{
					"input":11,
					"interpolation":"LINEAR",
					"output":60
				},
				{
					"input":11,
					"interpolation":"LINEAR",
					"output":61
				},
				{
					"input":7,
					"interpolation":"LINEAR",
					"output":62
				},
				{
					"input":7,
					"interpolation":"LINEAR",
					"output":63
				},
				{
					"input":11,
					"interpolation":"LINEAR",
					"output":64
				},
				{
					"input":7,
					"interpolation":"LINEAR",
					"output":65
				},
				{
					"input":11,
					"interpolation":"LINEAR",
					"output":66
				},
				{
					"input":11,
					"interpolation":"LINEAR",
					"output":67
				},
				{
					"input":7,
					"interpolation":"LINEAR",
					"output":68
				},
				{
					"input":7,
					"interpolation":"LINEAR",
					"output":69
				},
				{
					"input":11,
					"interpolation":"LINEAR",
					"output":70
				},
				{
					"input":7,
					"interpolation":"LINEAR",
					"output":71
				},
				{
					"input":7,
					"interpolation":"LINEAR",
					"output":72
				},
				{
					"input":11,
					"interpolation":"LINEAR",
					"output":73
				},
				{
					"input":7,
					"interpolation":"LINEAR",
					"output":74
				},
				{
					"input":7,
					"interpolation":"LINEAR",
					"output":75
				},
				{
					"input":11,
					"interpolation":"LINEAR",
					"output":76
				},
				{
					"input":7,
					"interpolation":"LINEAR",
					"output":77
				},
				{
					"input":7,
					"interpolation":"LINEAR",
					"output":78
				},
				{
					"input":11,
					"interpolation":"LINEAR",
					"output":79
				},
				{
					"input":7,
					"interpolation":"LINEAR",
					"output":80
				},
				{
					"input":7,
					"interpolation":"LINEAR",
					"output":81
				},
				{
					"input":11,
					"interpolation":"LINEAR",
					"output":82
				},
				{
					"input":7,
					"interpolation":"LINEAR",
					"output":83
				},
				{
					"input":7,
					"interpolation":"LINEAR",
					"output":84
				},
				{
					"input":11,
					"interpolation":"LINEAR",
					"output":85
				},
				{
					"input":7,
					"interpolation":"LINEAR",
					"output":86
				},
				{
					"input":7,
					"interpolation":"LINEAR",
					"output":87
				},
				{
					"input":11,
					"interpolation":"LINEAR",
					"output":88
				},
				{
					"input":7,
					"interpolation":"LINEAR",
					"output":89
				},
				{
					"input":7,
					"interpolation":"LINEAR",
					"output":90
				},
				{
					"input":11,
					"interpolation":"LINEAR",
					"output":91
				},
				{
					"input":7,
					"interpolation":"LINEAR",
					"output":92
				},
				{
					"input":7,
					"interpolation":"LINEAR",
					"output":93
				},
				{
					"input":11,
					"interpolation":"LINEAR",
					"output":94
				},
				{
					"input":7,
					"interpolation":"LINEAR",
					"output":95
				},
				{
					"input":7,
					"interpolation":"LINEAR",
					"output":96
				},
				{
					"input":11,
					"interpolation":"LINEAR",
					"output":97
				},
				{
					"input":7,
					"interpolation":"LINEAR",
					"output":98
				},
				{
					"input":7,
					"interpolation":"LINEAR",
					"output":99
				},
				{
					"input":11,
					"interpolation":"LINEAR",
					"output":100
				},
				{
					"input":7,
					"interpolation":"LINEAR",
					"output":101
				},
				{
					"input":7,
					"interpolation":"LINEAR",
					"output":102
				},
				{
					"input":11,
					"interpolation":"LINEAR",
					"output":103
				},
				{
					"input":7,
					"interpolation":"LINEAR",
					"output":104
				},
				{
					"input":7,
					"interpolation":"LINEAR",
					"output":105
				},
				{
					"input":11,
					"interpolation":"LINEAR",
					"output":106
				},
				{
					"input":7,
					"interpolation":"LINEAR",
					"output":107
				},
				{
					"input":7,
					"interpolation":"LINEAR",
					"output":108
				},
				{
					"input":11,
					"interpolation":"LINEAR",
					"output":109
				},
				{
					"input":7,
					"interpolation":"LINEAR",
					"output":110
				},
				{
					"input":7,
					"interpolation":"LINEAR",
					"output":111
				},
				{
					"input":11,
					"interpolation":"LINEAR",
					"output":112
				},
				{
					"input":7,
					"interpolation":"LINEAR",
					"output":113
				},
				{
					"input":7,
					"interpolation":"LINEAR",
					"output":114
				},
				{
					"input":11,
					"interpolation":"LINEAR",
					"output":115
				},
				{
					"input":7,
					"interpolation":"LINEAR",
					"output":116
				},
				{
					"input":7,
					"interpolation":"LINEAR",
					"output":117
				},
				{
					"input":11,
					"interpolation":"LINEAR",
					"output":118
				},
				{
					"input":7,
					"interpolation":"LINEAR",
					"output":119
				},
				{
					"input":7,
					"interpolation":"STEP",
					"output":120
				},
				{
					"input":7,
					"interpolation":"STEP",
					"output":121
				},
				{
					"input":7,
					"interpolation":"STEP",
					"output":122
				}
			]
		}
	],
	"materials":[
		{
			"doubleSided":true,
			"name":"tripo_mat_a7d429d3-3af4-498d-ac74-ceb151ed840d.001",
			"normalTexture":{
				"index":0
			},
			"pbrMetallicRoughness":{
				"baseColorTexture":{
					"index":1
				},
				"metallicFactor":0,
				"roughnessFactor":0.5
			}
		}
	],
	"meshes":[
		{
			"name":"a7d429d3-3af4-498d-ac74-ceb151ed840d_1aacac91d271d968884d6ff09e",
			"primitives":[
				{
					"attributes":{
						"POSITION":0,
						"NORMAL":1,
						"TEXCOORD_0":2,
						"JOINTS_0":3,
						"WEIGHTS_0":4
					},
					"indices":5,
					"material":0
				}
			]
		}
	],
	"textures":[
		{
			"sampler":0,
			"source":0
		},
		{
			"sampler":0,
			"source":1
		}
	],
	"images":[
		{
			"mimeType":"image/jpeg",
			"name":"anime_character_3d_model_normal",
			"uri":"anime_character_3d_model_normal.jpg"
		},
		{
			"mimeType":"image/jpeg",
			"name":"anime_character_3d_model_basecolor",
			"uri":"anime_character_3d_model_basecolor.jpg"
		}
	],
	"skins":[
		{
			"inverseBindMatrices":6,
			"joints":[
				36,
				35,
				28,
				27,
				26,
				11,
				10,
				9,
				8,
				3,
				2,
				1,
				0,
				7,
				6,
				5,
				4,
				13,
				12,
				25,
				24,
				23,
				22,
				17,
				16,
				15,
				14,
				21,
				20,
				19,
				18,
				31,
				30,
				29,
				34,
				33,
				32
			],
			"name":"rig"
		}
	],
	"accessors":[
		{
			"bufferView":0,
			"componentType":5126,
			"count":12834,
			"max":[
				33.93351745605469,
				36.326541900634766,
				7.0040812492370605
			],
			"min":[
				-33.24934768676758,
				-36.536903381347656,
				-7.004081726074219
			],
			"type":"VEC3"
		},
		{
			"bufferView":1,
			"componentType":5126,
			"count":12834,
			"type":"VEC3"
		},
		{
			"bufferView":2,
			"componentType":5126,
			"count":12834,
			"type":"VEC2"
		},
		{
			"bufferView":3,
			"componentType":5121,
			"count":12834,
			"type":"VEC4"
		},
		{
			"bufferView":4,
			"componentType":5126,
			"count":12834,
			"type":"VEC4"
		},
		{
			"bufferView":5,
			"componentType":5123,
			"count":59436,
			"type":"SCALAR"
		},
		{
			"bufferView":6,
			"componentType":5126,
			"count":37,
			"type":"MAT4"
		},
		{
			"bufferView":7,
			"componentType":5126,
			"count":2,
			"max":[
				0.6333333333333333
			],
			"min":[
				0.03333333333333333
			],
			"type":"SCALAR"
		},
		{
			"bufferView":8,
			"componentType":5126,
			"count":2,
			"type":"VEC3"
		},
		{
			"bufferView":9,
			"componentType":5126,
			"count":2,
			"type":"VEC4"
		},
		{
			"bufferView":10,
			"componentType":5126,
			"count":2,
			"type":"VEC3"
		},
		{
			"bufferView":11,
			"componentType":5126,
			"count":19,
			"max":[
				0.6333333333333333
			],
			"min":[
				0.03333333333333333
			],
			"type":"SCALAR"
		},
		{
			"bufferView":12,
			"componentType":5126,
			"count":19,
			"type":"VEC3"
		},
		{
			"bufferView":13,
			"componentType":5126,
			"count":19,
			"type":"VEC4"
		},
		{
			"bufferView":14,
			"componentType":5126,
			"count":2,
			"type":"VEC3"
		},
		{
			"bufferView":15,
			"componentType":5126,
			"count":19,
			"type":"VEC3"
		},
		{
			"bufferView":16,
			"componentType":5126,
			"count":19,
			"type":"VEC4"
		},
		{
			"bufferView":17,
			"componentType":5126,
			"count":2,
			"type":"VEC3"
		},
		{
			"bufferView":18,
			"componentType":5126,
			"count":2,
			"type":"VEC3"
		},
		{
			"bufferView":19,
			"componentType":5126,
			"count":19,
			"type":"VEC4"
		},
		{
			"bufferView":20,
			"componentType":5126,
			"count":2,
			"type":"VEC3"
		},
		{
			"bufferView":21,
			"componentType":5126,
			"count":2,
			"type":"VEC3"
		},
		{
			"bufferView":22,
			"componentType":5126,
			"count":19,
			"type":"VEC4"
		},
		{
			"bufferView":23,
			"componentType":5126,
			"count":2,
			"type":"VEC3"
		},
		{
			"bufferView":24,
			"componentType":5126,
			"count":19,
			"type":"VEC3"
		},
		{
			"bufferView":25,
			"componentType":5126,
			"count":19,
			"type":"VEC4"
		},
		{
			"bufferView":26,
			"componentType":5126,
			"count":2,
			"type":"VEC3"
		},
		{
			"bufferView":27,
			"componentType":5126,
			"count":2,
			"type":"VEC3"
		},
		{
			"bufferView":28,
			"componentType":5126,
			"count":19,
			"type":"VEC4"
		},
		{
			"bufferView":29,
			"componentType":5126,
			"count":2,
			"type":"VEC3"
		},
		{
			"bufferView":30,
			"componentType":5126,
			"count":2,
			"type":"VEC3"
		},
		{
			"bufferView":31,
			"componentType":5126,
			"count":19,
			"type":"VEC4"
		},
		{
			"bufferView":32,
			"componentType":5126,
			"count":2,
			"type":"VEC3"
		},
		{
			"bufferView":33,
			"componentType":5126,
			"count":2,
			"type":"VEC3"
		},
		{
			"bufferView":34,
			"componentType":5126,
			"count":19,
			"type":"VEC4"
		},
		{
			"bufferView":35,
			"componentType":5126,
			"count":2,
			"type":"VEC3"
		},
		{
			"bufferView":36,
			"componentType":5126,
			"count":2,
			"type":"VEC3"
		},
		{
			"bufferView":37,
			"componentType":5126,
			"count":19,
			"type":"VEC4"
		},
		{
			"bufferView":38,
			"componentType":5126,
			"count":2,
			"type":"VEC3"
		},
		{
			"bufferView":39,
			"componentType":5126,
			"count":2,
			"type":"VEC3"
		},
		{
			"bufferView":40,
			"componentType":5126,
			"count":19,
			"type":"VEC4"
		},
		{
			"bufferView":41,
			"componentType":5126,
			"count":2,
			"type":"VEC3"
		},
		{
			"bufferView":42,
			"componentType":5126,
			"count":2,
			"type":"VEC3"
		},
		{
			"bufferView":43,
			"componentType":5126,
			"count":19,
			"type":"VEC4"
		},
		{
			"bufferView":44,
			"componentType":5126,
			"count":2,
			"type":"VEC3"
		},
		{
			"bufferView":45,
			"componentType":5126,
			"count":2,
			"type":"VEC3"
		},
		{
			"bufferView":46,
			"componentType":5126,
			"count":19,
			"type":"VEC4"
		},
		{
			"bufferView":47,
			"componentType":5126,
			"count":2,
			"type":"VEC3"
		},
		{
			"bufferView":48,
			"componentType":5126,
			"count":2,
			"type":"VEC3"
		},
		{
			"bufferView":49,
			"componentType":5126,
			"count":19,
			"type":"VEC4"
		},
		{
			"bufferView":50,
			"componentType":5126,
			"count":2,
			"type":"VEC3"
		},
		{
			"bufferView":51,
			"componentType":5126,
			"count":2,
			"type":"VEC3"
		},
		{
			"bufferView":52,
			"componentType":5126,
			"count":19,
			"type":"VEC4"
		},
		{
			"bufferView":53,
			"componentType":5126,
			"count":2,
			"type":"VEC3"
		},
		{
			"bufferView":54,
			"componentType":5126,
			"count":2,
			"type":"VEC3"
		},
		{
			"bufferView":55,
			"componentType":5126,
			"count":19,
			"type":"VEC4"
		},
		{
			"bufferView":56,
			"componentType":5126,
			"count":2,
			"type":"VEC3"
		},
		{
			"bufferView":57,
			"componentType":5126,
			"count":2,
			"type":"VEC3"
		},
		{
			"bufferView":58,
			"componentType":5126,
			"count":19,
			"type":"VEC4"
		},
		{
			"bufferView":59,
			"componentType":5126,
			"count":2,
			"type":"VEC3"
		},
		{
			"bufferView":60,
			"componentType":5126,
			"count":19,
			"type":"VEC3"
		},
		{
			"bufferView":61,
			"componentType":5126,
			"count":19,
			"type":"VEC4"
		},
		{
			"bufferView":62,
			"componentType":5126,
			"count":2,
			"type":"VEC3"
		},
		{
			"bufferView":63,
			"componentType":5126,
			"count":2,
			"type":"VEC3"
		},
		{
			"bufferView":64,
			"componentType":5126,
			"count":19,
			"type":"VEC4"
		},
		{
			"bufferView":65,
			"componentType":5126,
			"count":2,
			"type":"VEC3"
		},
		{
			"bufferView":66,
			"componentType":5126,
			"count":19,
			"type":"VEC3"
		},
		{
			"bufferView":67,
			"componentType":5126,
			"count":19,
			"type":"VEC4"
		},
		{
			"bufferView":68,
			"componentType":5126,
			"count":2,
			"type":"VEC3"
		},
		{
			"bufferView":69,
			"componentType":5126,
			"count":2,
			"type":"VEC3"
		},
		{
			"bufferView":70,
			"componentType":5126,
			"count":19,
			"type":"VEC4"
		},
		{
			"bufferView":71,
			"componentType":5126,
			"count":2,
			"type":"VEC3"
		},
		{
			"bufferView":72,
			"componentType":5126,
			"count":2,
			"type":"VEC3"
		},
		{
			"bufferView":73,
			"componentType":5126,
			"count":19,
			"type":"VEC4"
		},
		{
			"bufferView":74,
			"componentType":5126,
			"count":2,
			"type":"VEC3"
		},
		{
			"bufferView":75,
			"componentType":5126,
			"count":2,
			"type":"VEC3"
		},
		{
			"bufferView":76,
			"componentType":5126,
			"count":19,
			"type":"VEC4"
		},
		{
			"bufferView":77,
			"componentType":5126,
			"count":2,
			"type":"VEC3"
		},
		{
			"bufferView":78,
			"componentType":5126,
			"count":2,
			"type":"VEC3"
		},
		{
			"bufferView":79,
			"componentType":5126,
			"count":19,
			"type":"VEC4"
		},
		{
			"bufferView":80,
			"componentType":5126,
			"count":2,
			"type":"VEC3"
		},
		{
			"bufferView":81,
			"componentType":5126,
			"count":2,
			"type":"VEC3"
		},
		{
			"bufferView":82,
			"componentType":5126,
			"count":19,
			"type":"VEC4"
		},
		{
			"bufferView":83,
			"componentType":5126,
			"count":2,
			"type":"VEC3"
		},
		{
			"bufferView":84,
			"componentType":5126,
			"count":2,
			"type":"VEC3"
		},
		{
			"bufferView":85,
			"componentType":5126,
			"count":19,
			"type":"VEC4"
		},
		{
			"bufferView":86,
			"componentType":5126,
			"count":2,
			"type":"VEC3"
		},
		{
			"bufferView":87,
			"componentType":5126,
			"count":2,
			"type":"VEC3"
		},
		{
			"bufferView":88,
			"componentType":5126,
			"count":19,
			"type":"VEC4"
		},
		{
			"bufferView":89,
			"componentType":5126,
			"count":2,
			"type":"VEC3"
		},
		{
			"bufferView":90,
			"componentType":5126,
			"count":2,
			"type":"VEC3"
		},
		{
			"bufferView":91,
			"componentType":5126,
			"count":19,
			"type":"VEC4"
		},
		{
			"bufferView":92,
			"componentType":5126,
			"count":2,
			"type":"VEC3"
		},
		{
			"bufferView":93,
			"componentType":5126,
			"count":2,
			"type":"VEC3"
		},
		{
			"bufferView":94,
			"componentType":5126,
			"count":19,
			"type":"VEC4"
		},
		{
			"bufferView":95,
			"componentType":5126,
			"count":2,
			"type":"VEC3"
		},
		{
			"bufferView":96,
			"componentType":5126,
			"count":2,
			"type":"VEC3"
		},
		{
			"bufferView":97,
			"componentType":5126,
			"count":19,
			"type":"VEC4"
		},
		{
			"bufferView":98,
			"componentType":5126,
			"count":2,
			"type":"VEC3"
		},
		{
			"bufferView":99,
			"componentType":5126,
			"count":2,
			"type":"VEC3"
		},
		{
			"bufferView":100,
			"componentType":5126,
			"count":19,
			"type":"VEC4"
		},
		{
			"bufferView":101,
			"componentType":5126,
			"count":2,
			"type":"VEC3"
		},
		{
			"bufferView":102,
			"componentType":5126,
			"count":2,
			"type":"VEC3"
		},
		{
			"bufferView":103,
			"componentType":5126,
			"count":19,
			"type":"VEC4"
		},
		{
			"bufferView":104,
			"componentType":5126,
			"count":2,
			"type":"VEC3"
		},
		{
			"bufferView":105,
			"componentType":5126,
			"count":2,
			"type":"VEC3"
		},
		{
			"bufferView":106,
			"componentType":5126,
			"count":19,
			"type":"VEC4"
		},
		{
			"bufferView":107,
			"componentType":5126,
			"count":2,
			"type":"VEC3"
		},
		{
			"bufferView":108,
			"componentType":5126,
			"count":2,
			"type":"VEC3"
		},
		{
			"bufferView":109,
			"componentType":5126,
			"count":19,
			"type":"VEC4"
		},
		{
			"bufferView":110,
			"componentType":5126,
			"count":2,
			"type":"VEC3"
		},
		{
			"bufferView":111,
			"componentType":5126,
			"count":2,
			"type":"VEC3"
		},
		{
			"bufferView":112,
			"componentType":5126,
			"count":19,
			"type":"VEC4"
		},
		{
			"bufferView":113,
			"componentType":5126,
			"count":2,
			"type":"VEC3"
		},
		{
			"bufferView":114,
			"componentType":5126,
			"count":2,
			"type":"VEC3"
		},
		{
			"bufferView":115,
			"componentType":5126,
			"count":19,
			"type":"VEC4"
		},
		{
			"bufferView":116,
			"componentType":5126,
			"count":2,
			"type":"VEC3"
		},
		{
			"bufferView":117,
			"componentType":5126,
			"count":2,
			"type":"VEC3"
		},
		{
			"bufferView":118,
			"componentType":5126,
			"count":19,
			"type":"VEC4"
		},
		{
			"bufferView":119,
			"componentType":5126,
			"count":2,
			"type":"VEC3"
		},
		{
			"bufferView":120,
			"componentType":5126,
			"count":2,
			"type":"VEC3"
		},
		{
			"bufferView":121,
			"componentType":5126,
			"count":2,
			"type":"VEC4"
		},
		{
			"bufferView":122,
			"componentType":5126,
			"count":2,
			"type":"VEC3"
		}
	],
	"bufferViews":[
		{
			"buffer":0,
			"byteLength":154008,
			"byteOffset":0,
			"target":34962
		},
		{
			"buffer":0,
			"byteLength":154008,
			"byteOffset":154008,
			"target":34962
		},
		{
			"buffer":0,
			"byteLength":102672,
			"byteOffset":308016,
			"target":34962
		},
		{
			"buffer":0,
			"byteLength":51336,
			"byteOffset":410688,
			"target":34962
		},
		{
			"buffer":0,
			"byteLength":205344,
			"byteOffset":462024,
			"target":34962
		},
		{
			"buffer":0,
			"byteLength":118872,
			"byteOffset":667368,
			"target":34963
		},
		{
			"buffer":0,
			"byteLength":2368,
			"byteOffset":786240
		},
		{
			"buffer":0,
			"byteLength":8,
			"byteOffset":788608
		},
		{
			"buffer":0,
			"byteLength":24,
			"byteOffset":788616
		},
		{
			"buffer":0,
			"byteLength":32,
			"byteOffset":788640
		},
		{
			"buffer":0,
			"byteLength":24,
			"byteOffset":788672
		},
		{
			"buffer":0,
			"byteLength":76,
			"byteOffset":788696
		},
		{
			"buffer":0,
			"byteLength":228,
			"byteOffset":788772
		},
		{
			"buffer":0,
			"byteLength":304,
			"byteOffset":789000
		},
		{
			"buffer":0,
			"byteLength":24,
			"byteOffset":789304
		},
		{
			"buffer":0,
			"byteLength":228,
			"byteOffset":789328
		},
		{
			"buffer":0,
			"byteLength":304,
			"byteOffset":789556
		},
		{
			"buffer":0,
			"byteLength":24,
			"byteOffset":789860
		},
		{
			"buffer":0,
			"byteLength":24,
			"byteOffset":789884
		},
		{
			"buffer":0,
			"byteLength":304,
			"byteOffset":789908
		},
		{
			"buffer":0,
			"byteLength":24,
			"byteOffset":790212
		},
		{
			"buffer":0,
			"byteLength":24,
			"byteOffset":790236
		},
		{
			"buffer":0,
			"byteLength":304,
			"byteOffset":790260
		},
		{
			"buffer":0,
			"byteLength":24,
			"byteOffset":790564
		},
		{
			"buffer":0,
			"byteLength":228,
			"byteOffset":790588
		},
		{
			"buffer":0,
			"byteLength":304,
			"byteOffset":790816
		},
		{
			"buffer":0,
			"byteLength":24,
			"byteOffset":791120
		},
		{
			"buffer":0,
			"byteLength":24,
			"byteOffset":791144
		},
		{
			"buffer":0,
			"byteLength":304,
			"byteOffset":791168
		},
		{
			"buffer":0,
			"byteLength":24,
			"byteOffset":791472
		},
		{
			"buffer":0,
			"byteLength":24,
			"byteOffset":791496
		},
		{
			"buffer":0,
			"byteLength":304,
			"byteOffset":791520
		},
		{
			"buffer":0,
			"byteLength":24,
			"byteOffset":791824
		},
		{
			"buffer":0,
			"byteLength":24,
			"byteOffset":791848
		},
		{
			"buffer":0,
			"byteLength":304,
			"byteOffset":791872
		},
		{
			"buffer":0,
			"byteLength":24,
			"byteOffset":792176
		},
		{
			"buffer":0,
			"byteLength":24,
			"byteOffset":792200
		},
		{
			"buffer":0,
			"byteLength":304,
			"byteOffset":792224
		},
		{
			"buffer":0,
			"byteLength":24,
			"byteOffset":792528
		},
		{
			"buffer":0,
			"byteLength":24,
			"byteOffset":792552
		},
		{
			"buffer":0,
			"byteLength":304,
			"byteOffset":792576
		},
		{
			"buffer":0,
			"byteLength":24,
			"byteOffset":792880
		},
		{
			"buffer":0,
			"byteLength":24,
			"byteOffset":792904
		},
		{
			"buffer":0,
			"byteLength":304,
			"byteOffset":792928
		},
		{
			"buffer":0,
			"byteLength":24,
			"byteOffset":793232
		},
		{
			"buffer":0,
			"byteLength":24,
			"byteOffset":793256
		},
		{
			"buffer":0,
			"byteLength":304,
			"byteOffset":793280
		},
		{
			"buffer":0,
			"byteLength":24,
			"byteOffset":793584
		},
		{
			"buffer":0,
			"byteLength":24,
			"byteOffset":793608
		},
		{
			"buffer":0,
			"byteLength":304,
			"byteOffset":793632
		},
		{
			"buffer":0,
			"byteLength":24,
			"byteOffset":793936
		},
		{
			"buffer":0,
			"byteLength":24,
			"byteOffset":793960
		},
		{
			"buffer":0,
			"byteLength":304,
			"byteOffset":793984
		},
		{
			"buffer":0,
			"byteLength":24,
			"byteOffset":794288
		},
		{
			"buffer":0,
			"byteLength":24,
			"byteOffset":794312
		},
		{
			"buffer":0,
			"byteLength":304,
			"byteOffset":794336
		},
		{
			"buffer":0,
			"byteLength":24,
			"byteOffset":794640
		},
		{
			"buffer":0,
			"byteLength":24,
			"byteOffset":794664
		},
		{
			"buffer":0,
			"byteLength":304,
			"byteOffset":794688
		},
		{
			"buffer":0,
			"byteLength":24,
			"byteOffset":794992
		},
		{
			"buffer":0,
			"byteLength":228,
			"byteOffset":795016
		},
		{
			"buffer":0,
			"byteLength":304,
			"byteOffset":795244
		},
		{
			"buffer":0,
			"byteLength":24,
			"byteOffset":795548
		},
		{
			"buffer":0,
			"byteLength":24,
			"byteOffset":795572
		},
		{
			"buffer":0,
			"byteLength":304,
			"byteOffset":795596
		},
		{
			"buffer":0,
			"byteLength":24,
			"byteOffset":795900
		},
		{
			"buffer":0,
			"byteLength":228,
			"byteOffset":795924
		},
		{
			"buffer":0,
			"byteLength":304,
			"byteOffset":796152
		},
		{
			"buffer":0,
			"byteLength":24,
			"byteOffset":796456
		},
		{
			"buffer":0,
			"byteLength":24,
			"byteOffset":796480
		},
		{
			"buffer":0,
			"byteLength":304,
			"byteOffset":796504
		},
		{
			"buffer":0,
			"byteLength":24,
			"byteOffset":796808
		},
		{
			"buffer":0,
			"byteLength":24,
			"byteOffset":796832
		},
		{
			"buffer":0,
			"byteLength":304,
			"byteOffset":796856
		},
		{
			"buffer":0,
			"byteLength":24,
			"byteOffset":797160
		},
		{
			"buffer":0,
			"byteLength":24,
			"byteOffset":797184
		},
		{
			"buffer":0,
			"byteLength":304,
			"byteOffset":797208
		},
		{
			"buffer":0,
			"byteLength":24,
			"byteOffset":797512
		},
		{
			"buffer":0,
			"byteLength":24,
			"byteOffset":797536
		},
		{
			"buffer":0,
			"byteLength":304,
			"byteOffset":797560
		},
		{
			"buffer":0,
			"byteLength":24,
			"byteOffset":797864
		},
		{
			"buffer":0,
			"byteLength":24,
			"byteOffset":797888
		},
		{
			"buffer":0,
			"byteLength":304,
			"byteOffset":797912
		},
		{
			"buffer":0,
			"byteLength":24,
			"byteOffset":798216
		},
		{
			"buffer":0,
			"byteLength":24,
			"byteOffset":798240
		},
		{
			"buffer":0,
			"byteLength":304,
			"byteOffset":798264
		},
		{
			"buffer":0,
			"byteLength":24,
			"byteOffset":798568
		},
		{
			"buffer":0,
			"byteLength":24,
			"byteOffset":798592
		},
		{
			"buffer":0,
			"byteLength":304,
			"byteOffset":798616
		},
		{
			"buffer":0,
			"byteLength":24,
			"byteOffset":798920
		},
		{
			"buffer":0,
			"byteLength":24,
			"byteOffset":798944
		},
		{
			"buffer":0,
			"byteLength":304,
			"byteOffset":798968
		},
		{
			"buffer":0,
			"byteLength":24,
			"byteOffset":799272
		},
		{
			"buffer":0,
			"byteLength":24,
			"byteOffset":799296
		},
		{
			"buffer":0,
			"byteLength":304,
			"byteOffset":799320
		},
		{
			"buffer":0,
			"byteLength":24,
			"byteOffset":799624
		},
		{
			"buffer":0,
			"byteLength":24,
			"byteOffset":799648
		},
		{
			"buffer":0,
			"byteLength":304,
			"byteOffset":799672
		},
		{
			"buffer":0,
			"byteLength":24,
			"byteOffset":799976
		},
		{
			"buffer":0,
			"byteLength":24,
			"byteOffset":800000
		},
		{
			"buffer":0,
			"byteLength":304,
			"byteOffset":800024
		},
		{
			"buffer":0,
			"byteLength":24,
			"byteOffset":800328
		},
		{
			"buffer":0,
			"byteLength":24,
			"byteOffset":800352
		},
		{
			"buffer":0,
			"byteLength":304,
			"byteOffset":800376
		},
		{
			"buffer":0,
			"byteLength":24,
			"byteOffset":800680
		},
		{
			"buffer":0,
			"byteLength":24,
			"byteOffset":800704
		},
		{
			"buffer":0,
			"byteLength":304,
			"byteOffset":800728
		},
		{
			"buffer":0,
			"byteLength":24,
			"byteOffset":801032
		},
		{
			"buffer":0,
			"byteLength":24,
			"byteOffset":801056
		},
		{
			"buffer":0,
			"byteLength":304,
			"byteOffset":801080
		},
		{
			"buffer":0,
			"byteLength":24,
			"byteOffset":801384
		},
		{
			"buffer":0,
			"byteLength":24,
			"byteOffset":801408
		},
		{
			"buffer":0,
			"byteLength":304,
			"byteOffset":801432
		},
		{
			"buffer":0,
			"byteLength":24,
			"byteOffset":801736
		},
		{
			"buffer":0,
			"byteLength":24,
			"byteOffset":801760
		},
		{
			"buffer":0,
			"byteLength":304,
			"byteOffset":801784
		},
		{
			"buffer":0,
			"byteLength":24,
			"byteOffset":802088
		},
		{
			"buffer":0,
			"byteLength":24,
			"byteOffset":802112
		},
		{
			"buffer":0,
			"byteLength":304,
			"byteOffset":802136
		},
		{
			"buffer":0,
			"byteLength":24,
			"byteOffset":802440
		},
		{
			"buffer":0,
			"byteLength":24,
			"byteOffset":802464
		},
		{
			"buffer":0,
			"byteLength":32,
			"byteOffset":802488
		},
		{
			"buffer":0,
			"byteLength":24,
			"byteOffset":802520
		}
	],
	"samplers":[
		{
			"magFilter":9729,
			"minFilter":9987
		}
	],
	"buffers":[
		{
			"byteLength":802544,
			"uri":"a7d429d3-3af4-498d-ac74-ceb151ed840d_1aacac91d271d968884d6ff09e86f884_jump_end.bin"
		}
	]
}
