{
	"asset":{
		"generator":"Khronos glTF Blender I/O v4.1.62",
		"version":"2.0"
	},
	"scene":0,
	"scenes":[
		{
			"name":"Scene",
			"nodes":[
				45
			]
		}
	],
	"nodes":[
		{
			"name":"index_right3_end",
			"rotation":[
				6.075948931538733e-06,
				3.911555097602104e-07,
				9.719283298181836e-06,
				1
			],
			"scale":[
				0.9999999403953552,
				0.9999998807907104,
				1
			],
			"translation":[
				-1.4007091522216797e-06,
				0.2654869556427002,
				-1.1920928955078125e-06
			]
		},
		{
			"children":[
				0
			],
			"name":"index_right3",
			"rotation":[
				-7.167458079493372e-06,
				6.668269634246826e-07,
				-8.489936590194702e-06,
				1
			],
			"scale":[
				1,
				1.0000001192092896,
				1
			],
			"translation":[
				-3.993511199951172e-06,
				0.5309731960296631,
				7.152557373046875e-07
			]
		},
		{
			"children":[
				1
			],
			"name":"index_right2",
			"rotation":[
				-4.824250936508179e-06,
				1.3634562492370605e-06,
				-3.3676624298095703e-06,
				1
			],
			"translation":[
				1.341104507446289e-06,
				0.5309709310531616,
				-2.384185791015625e-07
			]
		},
		{
			"children":[
				2
			],
			"name":"index_right1",
			"rotation":[
				4.2691826820373535e-06,
				-1.1213123798370361e-06,
				3.300607204437256e-06,
				1
			],
			"scale":[
				1,
				1,
				1.0000001192092896
			],
			"translation":[
				-1.3709068298339844e-06,
				1.1946848630905151,
				1.6689300537109375e-06
			]
		},
		{
			"children":[
				3
			],
			"name":"index_right0",
			"rotation":[
				-0.10251966863870621,
				0.13347400724887848,
				0.19633816182613373,
				0.9659843444824219
			],
			"scale":[
				0.9999999403953552,
				1,
				1
			],
			"translation":[
				0.5494164228439331,
				1.680955171585083,
				0.19677209854125977
			]
		},
		{
			"name":"thumb_right3_end",
			"rotation":[
				-6.742775440216064e-07,
				-1.825392246246338e-07,
				-8.828938575788925e-07,
				1
			],
			"scale":[
				1,
				0.9999999403953552,
				1
			],
			"translation":[
				1.3113021850585938e-06,
				0.8059725761413574,
				4.76837158203125e-07
			]
		},
		{
			"children":[
				5
			],
			"name":"thumb_right3",
			"rotation":[
				9.760260581970215e-07,
				5.14090118031163e-07,
				1.8812717144101043e-06,
				1
			],
			"scale":[
				0.9999999403953552,
				1,
				0.9999999403953552
			],
			"translation":[
				-4.76837158203125e-07,
				1.6119451522827148,
				2.384185791015625e-06
			]
		},
		{
			"children":[
				6
			],
			"name":"thumb_right2",
			"rotation":[
				-0.009913315065205097,
				-0.0283737201243639,
				-0.059889525175094604,
				0.9977524876594543
			],
			"scale":[
				1,
				1,
				0.9999999403953552
			],
			"translation":[
				-2.682209014892578e-06,
				1.9425013065338135,
				-7.152557373046875e-07
			]
		},
		{
			"children":[
				7
			],
			"name":"thumb_right1",
			"rotation":[
				1.4547259752362152e-06,
				4.0978193283081055e-08,
				1.8756837789624115e-06,
				1
			],
			"scale":[
				1,
				0.9999998807907104,
				1
			],
			"translation":[
				-1.2516975402832031e-06,
				1.6187461614608765,
				-5.960464477539062e-07
			]
		},
		{
			"children":[
				8
			],
			"name":"thumb_right0",
			"rotation":[
				0.02982335165143013,
				0.1182984933257103,
				0.2369164228439331,
				0.9638395309448242
			],
			"scale":[
				1,
				1,
				1.0000001192092896
			],
			"translation":[
				-0.5866167545318604,
				-0.5045490860939026,
				0.0922219455242157
			]
		},
		{
			"children":[
				4,
				9
			],
			"name":"arm_right_hand",
			"rotation":[
				0.1577128916978836,
				-0.24393650889396667,
				-0.37428104877471924,
				0.8806448578834534
			],
			"scale":[
				0.9999999403953552,
				0.9999998807907104,
				1
			],
			"translation":[
				1.2814998626708984e-06,
				8.870031356811523,
				-1.0728836059570312e-06
			]
		},
		{
			"children":[
				10
			],
			"name":"arm_right_bot",
			"rotation":[
				0.11196472495794296,
				-0.12901026010513306,
				-0.1105235144495964,
				0.9790836572647095
			],
			"scale":[
				0.9999999403953552,
				1,
				1
			],
			"translation":[
				2.7865171432495117e-06,
				11.202086448669434,
				-1.1920928955078125e-07
			]
		},
		{
			"children":[
				11
			],
			"name":"arm_right_top",
			"rotation":[
				0.08437088876962662,
				-0.08540356159210205,
				0.11577145755290985,
				0.985994279384613
			],
			"scale":[
				0.9999999403953552,
				1.0000001192092896,
				0.9999999403953552
			],
			"translation":[
				-6.258487701416016e-07,
				2.2628371715545654,
				0
			]
		},
		{
			"children":[
				12
			],
			"name":"shoulder_right",
			"rotation":[
				-0.08041499555110931,
				-2.2246112507673388e-08,
				0.6524409055709839,
				0.7535611391067505
			],
			"translation":[
				-5.849970817565918,
				-0.1912839561700821,
				0.0995718240737915
			]
		},
		{
			"name":"head_end",
			"rotation":[
				-1.1957707712895171e-08,
				4.1359030627651384e-24,
				-1.494713353089594e-09,
				1
			],
			"translation":[
				3.4147054073230265e-09,
				4.984622955322266,
				7.061521500872914e-08
			]
		},
		{
			"children":[
				14
			],
			"name":"head",
			"rotation":[
				1.1957705936538332e-08,
				-9.098986738083304e-24,
				1.4947134641118964e-09,
				1
			],
			"scale":[
				1,
				0.9999999403953552,
				1
			],
			"translation":[
				0,
				9.969244003295898,
				-3.9977066990104504e-08
			]
		},
		{
			"children":[
				15
			],
			"name":"neck",
			"rotation":[
				1.2647005220856045e-08,
				-1.1580528575742387e-23,
				-3.161751749303221e-09,
				1
			],
			"translation":[
				1.409488081804966e-08,
				1.9999983310699463,
				-2.099864104820881e-08
			]
		},
		{
			"name":"index_left3_end",
			"rotation":[
				7.092953637766186e-06,
				1.2367964927761932e-06,
				-2.5033953079400817e-06,
				1
			],
			"scale":[
				0.9999999403953552,
				0.9999999403953552,
				0.9999999403953552
			],
			"translation":[
				-5.960464477539062e-07,
				0.5421898365020752,
				-1.5497207641601562e-06
			]
		},
		{
			"children":[
				17
			],
			"name":"index_left3",
			"rotation":[
				-6.627291440963745e-06,
				-7.040798664093018e-07,
				2.9187649488449097e-06,
				1
			],
			"translation":[
				-2.2649765014648438e-06,
				1.0843791961669922,
				-3.5762786865234375e-07
			]
		},
		{
			"children":[
				18
			],
			"name":"index_left2",
			"rotation":[
				0.00827957596629858,
				0.056068215519189835,
				0.07326507568359375,
				0.9957007765769958
			],
			"scale":[
				1,
				0.9999998807907104,
				1
			],
			"translation":[
				-8.344650268554688e-07,
				1.050045371055603,
				-1.1920928955078125e-07
			]
		},
		{
			"children":[
				19
			],
			"name":"index_left1",
			"rotation":[
				0.04392286017537117,
				0.1491086184978485,
				0.17753882706165314,
				0.9717599749565125
			],
			"translation":[
				3.516674041748047e-06,
				2.452822685241699,
				-4.172325134277344e-06
			]
		},
		{
			"children":[
				20
			],
			"name":"index_left0",
			"rotation":[
				0.22605283558368683,
				0.33320268988609314,
				0.20774295926094055,
				0.8914701342582703
			],
			"scale":[
				1,
				1.0000001192092896,
				0.9999999403953552
			],
			"translation":[
				0.29993680119514465,
				1.633165955543518,
				-0.7390555143356323
			]
		},
		{
			"name":"thumb_left3_end",
			"rotation":[
				2.0246952772140503e-06,
				2.1420420637241477e-07,
				-5.084089934825897e-06,
				1
			],
			"scale":[
				0.9999999403953552,
				1,
				1
			],
			"translation":[
				2.384185791015625e-07,
				0.33013880252838135,
				7.152557373046875e-07
			]
		},
		{
			"children":[
				22
			],
			"name":"thumb_left3",
			"rotation":[
				-1.389533281326294e-06,
				4.0233138065559615e-07,
				6.046146609151037e-06,
				1
			],
			"scale":[
				0.9999999403953552,
				1,
				1
			],
			"translation":[
				-1.2516975402832031e-06,
				0.6602796316146851,
				-9.5367431640625e-07
			]
		},
		{
			"children":[
				23
			],
			"name":"thumb_left2",
			"rotation":[
				3.073364496231079e-07,
				1.3224780559539795e-07,
				-4.507601261138916e-07,
				1
			],
			"translation":[
				-1.1324882507324219e-06,
				0.792346715927124,
				-4.76837158203125e-07
			]
		},
		{
			"children":[
				24
			],
			"name":"thumb_left1",
			"rotation":[
				-3.5576519508140336e-07,
				-3.874301341966202e-07,
				-1.5087425708770752e-07,
				1
			],
			"scale":[
				1.0000001192092896,
				1,
				1.0000001192092896
			],
			"translation":[
				-2.562999725341797e-06,
				0.6602911949157715,
				-4.76837158203125e-07
			]
		},
		{
			"children":[
				25
			],
			"name":"thumb_left0",
			"rotation":[
				0.09176790714263916,
				0.14184777438640594,
				0.36960893869400024,
				0.9136996865272522
			],
			"scale":[
				0.9999999403953552,
				0.9999999403953552,
				0.9999999403953552
			],
			"translation":[
				-0.48044639825820923,
				0.9993962645530701,
				1.5994610786437988
			]
		},
		{
			"children":[
				21,
				26
			],
			"name":"arm_left_hand",
			"rotation":[
				-0.10930253565311432,
				-0.16440169513225555,
				-0.24302910268306732,
				0.9497167468070984
			],
			"scale":[
				1.0000001192092896,
				1,
				1
			],
			"translation":[
				-4.082918167114258e-06,
				8.870024681091309,
				-3.0994415283203125e-06
			]
		},
		{
			"children":[
				27
			],
			"name":"arm_left_bot",
			"rotation":[
				0.1119646355509758,
				0.12901028990745544,
				0.11052379757165909,
				0.9790836572647095
			],
			"scale":[
				0.9999999403953552,
				1.0000001192092896,
				0.9999999403953552
			],
			"translation":[
				1.4156103134155273e-07,
				11.202091217041016,
				-5.960464477539063e-08
			]
		},
		{
			"children":[
				28
			],
			"name":"arm_left_top",
			"rotation":[
				0.08437087386846542,
				0.08540356159210205,
				-0.11577165871858597,
				0.985994279384613
			],
			"scale":[
				0.9999999403953552,
				1.0000001192092896,
				0.9999998807907104
			],
			"translation":[
				-7.599592208862305e-07,
				2.26283860206604,
				0
			]
		},
		{
			"children":[
				29
			],
			"name":"shoulder_left",
			"rotation":[
				-0.08041499555110931,
				-1.4830741967841732e-08,
				-0.6524409055709839,
				0.7535611391067505
			],
			"scale":[
				1,
				0.9999999403953552,
				1
			],
			"translation":[
				6.281187057495117,
				-0.19128403067588806,
				0.0995718240737915
			]
		},
		{
			"children":[
				13,
				16,
				30
			],
			"name":"body_top2",
			"rotation":[
				2.1249846327009436e-10,
				-6.098784127507752e-17,
				4.769190375952803e-09,
				1
			],
			"translation":[
				-1.737604393703407e-09,
				4.635066032409668,
				2.394563125562854e-08
			]
		},
		{
			"children":[
				31
			],
			"name":"body_top1",
			"rotation":[
				-1.2859509013196657e-08,
				-4.1359030627651384e-24,
				-1.6074384046049772e-09,
				1
			],
			"translation":[
				0,
				5.562075614929199,
				1.7734919310896657e-08
			]
		},
		{
			"children":[
				32
			],
			"name":"body_top0",
			"rotation":[
				9.094947017729282e-13,
				0,
				0,
				1
			],
			"scale":[
				1,
				0.9999999403953552,
				1
			],
			"translation":[
				0,
				4.63507080078125,
				7.466331908290158e-08
			]
		},
		{
			"name":"leg_right_foot_end",
			"rotation":[
				2.1873312050502136e-08,
				-9.179436666463916e-23,
				-1.7763568394002505e-15,
				1
			],
			"translation":[
				1.2789769243681803e-13,
				5.449989318847656,
				4.611183612723835e-08
			]
		},
		{
			"children":[
				34
			],
			"name":"leg_right_foot",
			"rotation":[
				-2.1873315603215815e-08,
				-3.4054456718546713e-16,
				1.556895412591075e-08,
				1
			],
			"scale":[
				1,
				0.9999999403953552,
				1
			],
			"translation":[
				-4.677049858514692e-10,
				15.313719749450684,
				-4.84651536680758e-08
			]
		},
		{
			"children":[
				35
			],
			"name":"leg_right_bot",
			"rotation":[
				-9.094947017729282e-13,
				-1.4134862307306137e-20,
				-1.556895234955391e-08,
				1
			],
			"translation":[
				0,
				18.716772079467773,
				3.477714471955551e-08
			]
		},
		{
			"children":[
				36
			],
			"name":"leg_right_top",
			"rotation":[
				0,
				0,
				-1,
				0
			],
			"translation":[
				-5.778936386108398,
				-0.8605049848556519,
				0.7215014696121216
			]
		},
		{
			"name":"leg_left_foot_end",
			"rotation":[
				2.022403400303574e-08,
				0,
				0,
				1
			],
			"translation":[
				0,
				5.894437789916992,
				3.0689648156112526e-08
			]
		},
		{
			"children":[
				38
			],
			"name":"leg_left_foot",
			"rotation":[
				-2.022403045032206e-08,
				0,
				0,
				1
			],
			"translation":[
				0,
				15.313719749450684,
				-4.84651536680758e-08
			]
		},
		{
			"children":[
				39
			],
			"name":"leg_left_bot",
			"rotation":[
				-9.094947017729282e-13,
				0,
				0,
				1
			],
			"translation":[
				0,
				18.716772079467773,
				3.477714471955551e-08
			]
		},
		{
			"children":[
				40
			],
			"name":"leg_left_top",
			"rotation":[
				0,
				0,
				-1,
				0
			],
			"translation":[
				6.210152626037598,
				-0.8605049848556519,
				0.7215014696121216
			]
		},
		{
			"children":[
				33,
				37,
				41
			],
			"name":"body",
			"rotation":[
				-5.006825176678831e-06,
				0,
				0,
				1
			],
			"translation":[
				0,
				40.785438537597656,
				-0.00040819510468281806
			]
		},
		{
			"children":[
				42
			],
			"name":"root",
			"rotation":[
				-0.7071031928062439,
				0,
				0,
				0.7071103453636169
			],
			"translation":[
				-0.215608149766922,
				-1.9202817678451538,
				36.536903381347656
			]
		},
		{
			"mesh":0,
			"name":"a7d429d3-3af4-498d-ac74-ceb151ed840d_1aacac91d271d968884d6ff09e",
			"skin":0
		},
		{
			"children":[
				44,
				43
			],
			"name":"rig",
			"rotation":[
				0.7071068286895752,
				0,
				0,
				0.7071068286895752
			]
		}
	],
	"materials":[
		{
			"doubleSided":true,
			"name":"tripo_mat_a7d429d3-3af4-498d-ac74-ceb151ed840d.001",
			"normalTexture":{
				"index":0
			},
			"pbrMetallicRoughness":{
				"baseColorTexture":{
					"index":1
				},
				"metallicFactor":0,
				"roughnessFactor":0.5
			}
		}
	],
	"meshes":[
		{
			"name":"a7d429d3-3af4-498d-ac74-ceb151ed840d_1aacac91d271d968884d6ff09e",
			"primitives":[
				{
					"attributes":{
						"POSITION":0,
						"NORMAL":1,
						"TEXCOORD_0":2,
						"JOINTS_0":3,
						"WEIGHTS_0":4
					},
					"indices":5,
					"material":0
				}
			]
		}
	],
	"textures":[
		{
			"sampler":0,
			"source":0
		},
		{
			"sampler":0,
			"source":1
		}
	],
	"images":[
		{
			"mimeType":"image/jpeg",
			"name":"anime_character_3d_model_normal",
			"uri":"anime_character_3d_model_normal.jpg"
		},
		{
			"mimeType":"image/jpeg",
			"name":"anime_character_3d_model_basecolor",
			"uri":"anime_character_3d_model_basecolor.jpg"
		}
	],
	"skins":[
		{
			"inverseBindMatrices":6,
			"joints":[
				43,
				42,
				33,
				32,
				31,
				13,
				12,
				11,
				10,
				4,
				3,
				2,
				1,
				0,
				9,
				8,
				7,
				6,
				5,
				16,
				15,
				14,
				30,
				29,
				28,
				27,
				21,
				20,
				19,
				18,
				17,
				26,
				25,
				24,
				23,
				22,
				37,
				36,
				35,
				34,
				41,
				40,
				39,
				38
			],
			"name":"rig"
		}
	],
	"accessors":[
		{
			"bufferView":0,
			"componentType":5126,
			"count":12834,
			"max":[
				33.93351745605469,
				36.3265380859375,
				7.004085540771484
			],
			"min":[
				-33.24934768676758,
				-36.53690719604492,
				-7.00408411026001
			],
			"type":"VEC3"
		},
		{
			"bufferView":1,
			"componentType":5126,
			"count":12834,
			"type":"VEC3"
		},
		{
			"bufferView":2,
			"componentType":5126,
			"count":12834,
			"type":"VEC2"
		},
		{
			"bufferView":3,
			"componentType":5121,
			"count":12834,
			"type":"VEC4"
		},
		{
			"bufferView":4,
			"componentType":5126,
			"count":12834,
			"type":"VEC4"
		},
		{
			"bufferView":5,
			"componentType":5123,
			"count":59436,
			"type":"SCALAR"
		},
		{
			"bufferView":6,
			"componentType":5126,
			"count":44,
			"type":"MAT4"
		}
	],
	"bufferViews":[
		{
			"buffer":0,
			"byteLength":154008,
			"byteOffset":0,
			"target":34962
		},
		{
			"buffer":0,
			"byteLength":154008,
			"byteOffset":154008,
			"target":34962
		},
		{
			"buffer":0,
			"byteLength":102672,
			"byteOffset":308016,
			"target":34962
		},
		{
			"buffer":0,
			"byteLength":51336,
			"byteOffset":410688,
			"target":34962
		},
		{
			"buffer":0,
			"byteLength":205344,
			"byteOffset":462024,
			"target":34962
		},
		{
			"buffer":0,
			"byteLength":118872,
			"byteOffset":667368,
			"target":34963
		},
		{
			"buffer":0,
			"byteLength":2816,
			"byteOffset":786240
		}
	],
	"samplers":[
		{
			"magFilter":9729,
			"minFilter":9987
		}
	],
	"buffers":[
		{
			"byteLength":789056,
			"uri":"a7d429d3-3af4-498d-ac74-ceb151ed840d_1aacac91d271d968884d6ff09e86f884.bin"
		}
	]
}
